# xmcd
#
# Track frame offsets: 
#        150
#        34381
#        56015
#        83496
#        96695
#        120092
#        148270
#        179262
#        189417
#        206260
#        225142
#        255717
#        278387
#        294339
#        316389
#        337305
#
# Disc length: 4793 seconds
#
# Revision: 0
# Processed by: cddbd v1.5.2PL0 Copyright (c) Steve Scherf et al.
# Submitted via: ExactAudioCopyFreeDBPlugin 1.0
#
DISCID=e012b710
DTITLE=Dimitri van Toren - Liedjes om te koesteren disk 3
DYEAR=2017
DGENRE=Nederlands
TTITLE0=Wanneer het allemaal niet meer hoeft
TTITLE1=Stille nacht
TTITLE2=Eerst Napels zien
TTITLE3=Ik heb een krekel in mijn huis
TTITLE4=Het jaar weer rond
TTITLE5=Tussen heimwee en verlangen
TTITLE6=En dan weer een liedje daar
TTITLE7=Ik hoop jou nog eens te zien
TTITLE8=Charlie
TTITLE9=Zodra de voorstelling weer begint
TTITLE10=Op het toneel van alleen maar verbeelding
TTITLE11=En soms waait er zoiets van vrede door mijn hart
TTITLE12=Dragonada
TTITLE13=Of zullen we
TTITLE14=Al wat het mooiste is
TTITLE15=Signaal
EXTD=
EXTT0=
EXTT1=
EXTT2=
EXTT3=
EXTT4=
EXTT5=
EXTT6=
EXTT7=
EXTT8=
EXTT9=
EXTT10=
EXTT11=
EXTT12=
EXTT13=
EXTT14=
EXTT15=
PLAYORDER=
